<svg width="20" height="20" viewBox="0 0 20 20" fill="none" xmlns="http://www.w3.org/2000/svg">
<path d="M9.99999 4.70593C10.234 4.70593 10.4584 4.79889 10.6239 4.96437C10.7894 5.12984 10.8823 5.35427 10.8823 5.58829V9.1177H14.4118C14.6458 9.1177 14.8702 9.21066 15.0357 9.37613C15.2011 9.54161 15.2941 9.76604 15.2941 10C15.2941 10.2341 15.2011 10.4585 15.0357 10.624C14.8702 10.7894 14.6458 10.8824 14.4118 10.8824H10.8823V14.4118C10.8823 14.6458 10.7894 14.8703 10.6239 15.0357C10.4584 15.2012 10.234 15.2942 9.99999 15.2942C9.76597 15.2942 9.54154 15.2012 9.37607 15.0357C9.2106 14.8703 9.11764 14.6458 9.11764 14.4118V10.8824H5.58822C5.35421 10.8824 5.12978 10.7894 4.96431 10.624C4.79883 10.4585 4.70587 10.2341 4.70587 10C4.70587 9.76604 4.79883 9.54161 4.96431 9.37613C5.12978 9.21066 5.35421 9.1177 5.58822 9.1177H9.11764V5.58829C9.11764 5.35427 9.2106 5.12984 9.37607 4.96437C9.54154 4.79889 9.76597 4.70593 9.99999 4.70593Z" fill="#1875F0"/>
<path fill-rule="evenodd" clip-rule="evenodd" d="M3.00001 20C2.20435 20 1.44129 19.684 0.878681 19.1214C0.316071 18.5587 0 17.7957 0 17V3.00001C0 2.20435 0.316071 1.44129 0.878681 0.878681C1.44129 0.316071 2.20435 0 3.00001 0H17C17.7957 0 18.5587 0.316071 19.1214 0.878681C19.684 1.44129 20 2.20435 20 3.00001V17C20 17.7957 19.684 18.5587 19.1214 19.1214C18.5587 19.684 17.7957 20 17 20H3.00001ZM2 17C2 17.2652 2.10536 17.5196 2.2929 17.7071C2.48043 17.8947 2.73479 18 3.00001 18H17C17.2652 18 17.5196 17.8947 17.7071 17.7071C17.8947 17.5196 18 17.2652 18 17V3.00001C18 2.73479 17.8947 2.48043 17.7071 2.2929C17.5196 2.10536 17.2652 2 17 2H3.00001C2.73479 2 2.48043 2.10536 2.2929 2.2929C2.10536 2.48043 2 2.73479 2 3.00001V17Z" fill="#1875F0"/>
</svg>
