<svg width="20" height="16" viewBox="0 0 20 16" fill="none" xmlns="http://www.w3.org/2000/svg">
<path d="M20 10.6667H18.1818V12.4444H20V10.6667ZM20 7.11111H18.1818V8.88889H20V7.11111ZM20 14.2222H18.1818V16C19.0909 16 20 15.1111 20 14.2222ZM12.7273 0H10.9091V1.77778H12.7273V0ZM20 3.55556H18.1818V5.33333H20V3.55556ZM18.1818 0V1.77778H20C20 0.888889 19.0909 0 18.1818 0ZM1.81818 16H9.09091V12.4444C9.09091 11.4667 8.27273 10.6667 7.27273 10.6667H0V14.2222C0 15.2 0.818182 16 1.81818 16ZM1.81818 3.55556H0V5.33333H1.81818V3.55556ZM12.7273 14.2222H10.9091V16H12.7273V14.2222ZM16.3636 0H14.5455V1.77778H16.3636V0ZM16.3636 14.2222H14.5455V16H16.3636V14.2222ZM1.81818 0C0.909091 0 0 0.888889 0 1.77778H1.81818V0ZM1.81818 7.11111H0V8.88889H1.81818V7.11111ZM9.09091 0H7.27273V1.77778H9.09091V0ZM5.45455 0H3.63636V1.77778H5.45455V0Z" fill="#1875F0"/>
</svg>
